<svg xmlns="http://www.w3.org/2000/svg" viewBox="0 0 115.94 76.06"><defs><style>.cls-1{fill:#06e3f9;}</style></defs><g id="レイヤー_2" data-name="レイヤー 2"><g id="レイヤー_1-2" data-name="レイヤー 1"><path class="cls-1" d="M112.13,20.88H96.42L89,55.88v0h0a27.21,27.21,0,0,1-3.92,7.22,6.45,6.45,0,0,1-5.23,2.35,4.14,4.14,0,0,1-3.38-1.2,5.23,5.23,0,0,1-1-3.38,24.5,24.5,0,0,1,.71-5.07q.7-3.21,1.58-6.6c.94-3.7,1.67-6.85,2.18-9.43a36.48,36.48,0,0,0,.76-7q0-6.23-3.27-9.27c-2.18-2-5.12-3.05-8.83-3.05q-9.12,0-15.11,9.19s-.06,0-.06,0q-1.66-9.28-11.22-9.28A17.21,17.21,0,0,0,29,26.45s-.07,0-.06,0l1.16-5.49s0-.05,0-.05h-8A7.64,7.64,0,0,0,16.13,23,7.51,7.51,0,0,0,14,28.35a141.43,141.43,0,0,1-4,20,142.13,142.13,0,0,1-10,26l6,1a13.64,13.64,0,0,0,10.25-2.82,13.32,13.32,0,0,0,4.48-7.32L26,40.4h0A20.7,20.7,0,0,1,29.53,33a6.63,6.63,0,0,1,5.29-2.78q3.27,0,3.27,4.8a11.07,11.07,0,0,1-.33,2.72l-6,28.35a7.47,7.47,0,0,0,0,3.16,7.66,7.66,0,0,0,7.35,6.11A7.24,7.24,0,0,0,42,74.87a18.21,18.21,0,0,1,2.69-1.79A8.29,8.29,0,0,0,46.86,69l.21-1L48,63.56,52.92,40.4h0a21.21,21.21,0,0,1,3.49-7.25,6.3,6.3,0,0,1,5-2.78q3.93,0,3.93,5.56a31.18,31.18,0,0,1-.77,6c-.5,2.47-1,5-1.63,7.52-.15.51-.42,1.67-.82,3.49s-.78,3.69-1.14,5.62a29.52,29.52,0,0,0-.53,4.61c0,.19,0,.38,0,.56a13.92,13.92,0,0,0,1.11,5.62,12.06,12.06,0,0,0,2,3.16,9,9,0,0,0,1.1,1c2.06,1.66,4.94,2.51,8.66,2.51a16.68,16.68,0,0,0,8.79-2.62A23.7,23.7,0,0,0,84.27,72a19.32,19.32,0,0,0,4.26-4.9,11.1,11.1,0,0,0,2.82,5.71,11.31,11.31,0,0,0,8.45,3.28,12.26,12.26,0,0,0,8.13-2.89,11.58,11.58,0,0,0,3.87-8.34,8.9,8.9,0,0,1-3.49.65,5.08,5.08,0,0,1-3.43-.93,4,4,0,0,1-1-3.11,13.07,13.07,0,0,1,.44-3.48Z"/><path class="cls-1" d="M113.38.22C111.67-1.49,107,7.35,107,7.35s-4.21-8.84-5.89-7.13a8.49,8.49,0,0,0-2.5,6.16,8.33,8.33,0,0,0,2.5,6.11,8.33,8.33,0,0,0,6.11,2.5,8.49,8.49,0,0,0,6.16-2.5,8.23,8.23,0,0,0,2.56-6.11A8.39,8.39,0,0,0,113.38.22Z"/></g></g></svg>