<?xml version="1.0" encoding="utf-8"?>
<!-- Generator: Adobe Illustrator 26.3.1, SVG Export Plug-In . SVG Version: 6.00 Build 0)  -->
<svg version="1.1" id="_x32_" xmlns="http://www.w3.org/2000/svg" xmlns:xlink="http://www.w3.org/1999/xlink" x="0px" y="0px"
	 viewBox="0 0 512 512" style="enable-background:new 0 0 512 512;" xml:space="preserve">
<style type="text/css">
	.st0{fill:#06E3F9;}
</style>
<path class="st0" d="M447.8,33.7c-36.4-5.6-70.6,15.8-82.6,49.2h-44v37.9H362c5.2,31.4,29.7,57.4,62.9,62.4
	c41.3,6.3,79.9-22,86.2-63.3C517.4,78.6,489.1,40,447.8,33.7z"/>
<path class="st0" d="M162.6,338.2c0-6.9-5.6-12.5-12.5-12.5h-54c-6.9,0-12.5,5.6-12.5,12.5c0,6.9,5.6,12.5,12.5,12.5h54
	C157,350.7,162.6,345.1,162.6,338.2z"/>
<path class="st0" d="M393,238L284.3,340.5l-38,9.4v-86.6H0v216h246.3v-59.5l35.5-5.7c17-2.4,29.4-6.7,44.3-15l46.3-24.2v104.4h132.4
	V270.8C504.9,202.6,428,202.4,393,238z M216,357.3l-36.4,9c-16,4.4-25.7,20.5-22.2,36.7l0.3,1.2c3.5,15.9,18.7,26.4,34.8,24.1
	l23.5-3.8v24.3H30.3V293.5H216V357.3z"/>
</svg>
