<svg xmlns="http://www.w3.org/2000/svg" viewBox="0 0 314.34 76.57"><defs><style>.cls-1{fill:#06e3f9;}</style></defs><g id="レイヤー_2" data-name="レイヤー 2"><g id="レイヤー_1-2" data-name="レイヤー 1"><path class="cls-1" d="M112.13,20.88H96.42L89,55.88v0h0a27.21,27.21,0,0,1-3.92,7.22,6.45,6.45,0,0,1-5.23,2.35,4.14,4.14,0,0,1-3.38-1.2,5.23,5.23,0,0,1-1-3.38,24.5,24.5,0,0,1,.71-5.07q.7-3.21,1.58-6.6c.94-3.7,1.67-6.85,2.18-9.43a36.48,36.48,0,0,0,.76-7q0-6.23-3.27-9.27c-2.18-2-5.12-3.05-8.83-3.05q-9.12,0-15.11,9.19s-.06,0-.06,0q-1.66-9.28-11.22-9.28A17.21,17.21,0,0,0,29,26.45s-.07,0-.06,0l1.16-5.49s0-.05,0-.05h-8A7.64,7.64,0,0,0,16.13,23,7.51,7.51,0,0,0,14,28.35a141.43,141.43,0,0,1-4,20,142.13,142.13,0,0,1-10,26l6,1a13.64,13.64,0,0,0,10.25-2.82,13.32,13.32,0,0,0,4.48-7.32L26,40.4h0A20.7,20.7,0,0,1,29.53,33a6.63,6.63,0,0,1,5.29-2.78q3.27,0,3.27,4.8a11.07,11.07,0,0,1-.33,2.72l-6,28.35a7.47,7.47,0,0,0,0,3.16,7.66,7.66,0,0,0,7.35,6.11A7.24,7.24,0,0,0,42,74.87a18.21,18.21,0,0,1,2.69-1.79A8.29,8.29,0,0,0,46.86,69l.21-1L48,63.56,52.92,40.4h0a21.21,21.21,0,0,1,3.49-7.25,6.3,6.3,0,0,1,5-2.78q3.93,0,3.93,5.56a31.18,31.18,0,0,1-.77,6c-.5,2.47-1,5-1.63,7.52-.15.51-.42,1.67-.82,3.49s-.78,3.69-1.14,5.62a29.52,29.52,0,0,0-.53,4.61c0,.19,0,.38,0,.56a13.92,13.92,0,0,0,1.11,5.62,12.06,12.06,0,0,0,2,3.16,9,9,0,0,0,1.1,1c2.06,1.66,4.94,2.51,8.66,2.51a16.68,16.68,0,0,0,8.79-2.62A23.7,23.7,0,0,0,84.27,72a19.32,19.32,0,0,0,4.26-4.9,11.1,11.1,0,0,0,2.82,5.71,11.31,11.31,0,0,0,8.45,3.28,12.26,12.26,0,0,0,8.13-2.89,11.58,11.58,0,0,0,3.87-8.34,8.9,8.9,0,0,1-3.49.65,5.08,5.08,0,0,1-3.43-.93,4,4,0,0,1-1-3.11,13.07,13.07,0,0,1,.44-3.48Z"/><path class="cls-1" d="M113.38.22C111.67-1.49,107,7.35,107,7.35s-4.21-8.84-5.89-7.13a8.49,8.49,0,0,0-2.5,6.16,8.33,8.33,0,0,0,2.5,6.11,8.33,8.33,0,0,0,6.11,2.5,8.49,8.49,0,0,0,6.16-2.5,8.23,8.23,0,0,0,2.56-6.11A8.39,8.39,0,0,0,113.38.22Z"/><path class="cls-1" d="M255,65.48a4.14,4.14,0,0,1-3.38-1.2,5.18,5.18,0,0,1-1-3.38,24.5,24.5,0,0,1,.71-5.07c.47-2.14,1-4.34,1.58-6.6.94-3.7,1.67-6.85,2.18-9.43a36.48,36.48,0,0,0,.76-7q0-6.23-3.27-9.27c-2.18-2-5.13-3.05-8.83-3.05q-9.16,0-15.16,9.26-1.63-9.37-11.23-9.37A17.25,17.25,0,0,0,204,26.55l1.2-5.67c-3.37,0-6.33.2-9.41.33A7.53,7.53,0,0,0,189,26.63a119.89,119.89,0,0,0-3.45,14c-.95,5.39-2,10-3,15a58.48,58.48,0,0,1-6,15.75c-.79,1.32-1.52,2.35-2,3a16.78,16.78,0,0,0,2.26.85,16,16,0,0,0,8.41.18c.24-.06.47-.14.71-.21a16,16,0,0,0,7.5-5,16.53,16.53,0,0,0,2.06-3l.52-2.45,5.13-24.23A20.7,20.7,0,0,1,204.64,33a6.63,6.63,0,0,1,5.28-2.78q3.29,0,3.28,4.8a11.07,11.07,0,0,1-.33,2.72l-5.32,25.16-.68,3.19a7.27,7.27,0,0,0-.15,1.21,7.57,7.57,0,0,0,.92,4,7.75,7.75,0,0,0,1.09,1.53,7.67,7.67,0,0,0,13.17-3.59l.66-3.09L228,40.4a21.39,21.39,0,0,1,3.48-7.25,6.33,6.33,0,0,1,5-2.78q3.93,0,3.93,5.56a31.18,31.18,0,0,1-.77,6q-.76,3.7-1.63,7.52c-.15.51-.42,1.67-.82,3.49s-.78,3.69-1.15,5.62a28.41,28.41,0,0,0-.54,5.17,14.25,14.25,0,0,0,2.75,9h0a7.55,7.55,0,0,0,.81.88c1.75,1.62,4.22,2.44,7.43,2.44a12,12,0,0,0,8-2.84q3.32-2.84,4-8.39A7.08,7.08,0,0,1,255,65.48Z"/><path d="M267.84,72q-4.18-3.67-3.9-11.41a44.56,44.56,0,0,1,3.42-14.65,38.72,38.72,0,0,1,9-13.73,17.65,17.65,0,0,1,13.37-5.4,16.29,16.29,0,0,1,4.69.74q-4,1.79-7.93,7.64a57.57,57.57,0,0,0-6.4,13.15,45.56,45.56,0,0,0-2.73,13,13.05,13.05,0,0,0,1.05,6.31,4.22,4.22,0,0,0,3.9,2.41q4.44.13,9-4.92A42.63,42.63,0,0,0,299,52.21a44.72,44.72,0,0,0,3.38-15.09,23,23,0,0,0-.69-7.36,7.26,7.26,0,0,0-3.33-4.28,15.08,15.08,0,0,0-7.1-1.63,35.71,35.71,0,0,0-13,1.91,23,23,0,0,0-9.79,6.33A15.24,15.24,0,0,0,264.51,42a6.77,6.77,0,0,0,.35,2.93,5.64,5.64,0,0,1,.41,1.08c-3-.09-5.28-.66-6.78-1.69a5.14,5.14,0,0,1-2.14-4.79q.18-5.09,5.46-9.57a38.48,38.48,0,0,1,13.84-7.08,54.89,54.89,0,0,1,17.89-2.31q11.31.36,16.2,5.54t4.58,14a42.17,42.17,0,0,1-4.2,16.32,36.31,36.31,0,0,1-11.69,14.13q-7.77,5.68-18.82,5.34Q272,75.63,267.84,72Z"/><path d="M176.45,28.52A6.73,6.73,0,0,0,170,20.74c-4.59-.16-5,.17-5,.17l-1.85,9.37a15.91,15.91,0,0,0-3-4.89q-4.64-5.17-15.36-5.53a49.76,49.76,0,0,0-17,2.3,35.75,35.75,0,0,0-13.12,7.09q-5,4.47-5.18,9.56a5.26,5.26,0,0,0,2,4.79c1.43,1,3.57,1.6,6.43,1.7a5.79,5.79,0,0,0-.39-1.09,7.13,7.13,0,0,1-.33-2.92,15.65,15.65,0,0,1,3.72-9.88,21.79,21.79,0,0,1,9.28-6.32,32,32,0,0,1,12.35-1.91,13.58,13.58,0,0,1,6.73,1.63,7.21,7.21,0,0,1,3.16,4.27,24.33,24.33,0,0,1,.66,7.36A47,47,0,0,1,150,51.54a43.25,43.25,0,0,1-7.3,12.85q-4.33,5.06-8.54,4.91a4,4,0,0,1-3.7-2.41,13.59,13.59,0,0,1-1-6.31,47,47,0,0,1,2.58-13,59.28,59.28,0,0,1,6.07-13.15q3.67-5.85,7.52-7.64a15,15,0,0,0-4.45-.74,16.36,16.36,0,0,0-12.68,5.4,39,39,0,0,0-8.49,13.73,46.59,46.59,0,0,0-3.24,14.65q-.27,7.74,3.69,11.42t11.17,3.91q10.47.36,17.83-5.34a36.05,36.05,0,0,0,7.36-7.61l-.47,2.4c-.12,3.5-2.47,10,6.81,11.74s12.11-8.95,12.11-8.95c-7.29,1.39-8.32-1.88-7-7.33C168.88,57.72,176.45,28.52,176.45,28.52Z"/></g></g></svg>