<svg xmlns="http://www.w3.org/2000/svg" viewBox="0 0 194.06 135.7"><defs><style>.cls-1{fill:none;}.cls-2{fill:#06e3f9;}</style></defs><g id="レイヤー_2" data-name="レイヤー 2"><g id="レイヤー_1-2" data-name="レイヤー 1"><path class="cls-1" d="M61.55,69.35c-.08-.06-.14-.13-.22-.18C59.53,68,57,67.34,53.72,67.34a33.7,33.7,0,0,0-6.65.66l-.21,1a8.29,8.29,0,0,1-2.19,4.09,15.51,15.51,0,0,1,7.51-1.89,14.74,14.74,0,0,1,5,.77q-4.24,2.51-8.14,10.3a85.25,85.25,0,0,0-6.31,17.43,71.51,71.51,0,0,0-2.4,17,20.26,20.26,0,0,0,1.35,8.18,4.43,4.43,0,0,0,4.23,3q4.72,0,9.39-6.78A60.13,60.13,0,0,0,63,104a70,70,0,0,0,3-19.84,36.88,36.88,0,0,0-1-9.58,11,11,0,0,0-.39-1.06,9,9,0,0,1-1.1-1A12.06,12.06,0,0,1,61.55,69.35Z"/><path class="cls-1" d="M60.46,63.17A29.52,29.52,0,0,1,61,58.56q.54-2.89,1.14-5.62c.4-1.82.67-3,.82-3.49.58-2.54,1.13-5.05,1.63-7.52a31.18,31.18,0,0,0,.77-6q0-5.57-3.93-5.56a6.3,6.3,0,0,0-5,2.78,21.21,21.21,0,0,0-3.49,7.25h0L48,63.56a50.65,50.65,0,0,1,8-.65A36.54,36.54,0,0,1,60.46,63.17Z"/><path d="M61.33,69.17c.08,0,.14.12.22.18a13.92,13.92,0,0,1-1.11-5.62c0-.18,0-.37,0-.56A36.54,36.54,0,0,0,56,62.91a50.65,50.65,0,0,0-8,.65L47.07,68a33.7,33.7,0,0,1,6.65-.66C57,67.34,59.53,68,61.33,69.17Z"/><path d="M26.47,95.89a11,11,0,0,1-.48-3.8,22.78,22.78,0,0,1,3.8-13,24.43,24.43,0,0,1,4.78-5.25,7.69,7.69,0,0,1-2.8-4.5,36.06,36.06,0,0,0-9.1,7.2q-5.45,6.06-5.44,12.71c0,2.82.82,4.88,2.45,6.16s4.06,1.93,7.27,1.93A7.38,7.38,0,0,0,26.47,95.89Z"/><path d="M87.58,71.52a9.43,9.43,0,0,1-5.48,1.92,16.68,16.68,0,0,1-8.79,2.62c-3.72,0-6.6-.85-8.66-2.51A11,11,0,0,1,65,74.61a36.88,36.88,0,0,1,1,9.58A70,70,0,0,1,63,104a60.13,60.13,0,0,1-7.7,17.09q-4.66,6.78-9.39,6.78a4.43,4.43,0,0,1-4.23-3,20.26,20.26,0,0,1-1.35-8.18,71.51,71.51,0,0,1,2.4-17,85.25,85.25,0,0,1,6.31-17.43Q53,74.46,57.19,72a14.74,14.74,0,0,0-5-.77,15.51,15.51,0,0,0-7.51,1.89A8,8,0,0,1,42,74.87a23.41,23.41,0,0,0-3.81,3.93,53.49,53.49,0,0,0-9,18.29,70.1,70.1,0,0,0-3.08,19.26q0,10.11,4.57,14.73t12.66,4.62A27.41,27.41,0,0,0,63.11,128,47.14,47.14,0,0,0,75,109a65.67,65.67,0,0,0,3.85-21.47,39.07,39.07,0,0,0-.74-7.85C84.2,78.28,87.58,71.52,87.58,71.52Z"/><path d="M44.67,73.08A18.21,18.21,0,0,0,42,74.87,8,8,0,0,0,44.67,73.08Z"/><path class="cls-2" d="M112.13,20.88H96.42L89,55.88v0h0a27.21,27.21,0,0,1-3.92,7.22,6.45,6.45,0,0,1-5.23,2.35,4.14,4.14,0,0,1-3.38-1.2,5.23,5.23,0,0,1-1-3.38,24.5,24.5,0,0,1,.71-5.07q.7-3.21,1.58-6.6c.94-3.7,1.67-6.85,2.18-9.43a36.48,36.48,0,0,0,.76-7q0-6.23-3.27-9.27c-2.18-2-5.12-3.05-8.83-3.05q-9.12,0-15.11,9.19s-.06,0-.06,0q-1.66-9.28-11.22-9.28A17.21,17.21,0,0,0,29,26.45s-.07,0-.06,0l1.16-5.49s0-.05,0-.05h-8A7.64,7.64,0,0,0,16.13,23,7.51,7.51,0,0,0,14,28.35a141.43,141.43,0,0,1-4,20,142.13,142.13,0,0,1-10,26l6,1a13.64,13.64,0,0,0,10.25-2.82,13.32,13.32,0,0,0,4.48-7.32L26,40.4h0A20.7,20.7,0,0,1,29.53,33a6.63,6.63,0,0,1,5.29-2.78q3.27,0,3.27,4.8a11.07,11.07,0,0,1-.33,2.72l-6,28.35a7.47,7.47,0,0,0,0,3.16,7.66,7.66,0,0,0,7.35,6.11A7.24,7.24,0,0,0,42,74.87a18.21,18.21,0,0,1,2.69-1.79A8.29,8.29,0,0,0,46.86,69l.21-1L48,63.56,52.92,40.4h0a21.21,21.21,0,0,1,3.49-7.25,6.3,6.3,0,0,1,5-2.78q3.93,0,3.93,5.56a31.18,31.18,0,0,1-.77,6c-.5,2.47-1,5-1.63,7.52-.15.51-.42,1.67-.82,3.49s-.78,3.69-1.14,5.62a29.52,29.52,0,0,0-.53,4.61c0,.19,0,.38,0,.56a13.92,13.92,0,0,0,1.11,5.62,12.06,12.06,0,0,0,2,3.16,9,9,0,0,0,1.1,1c2.06,1.66,4.94,2.51,8.66,2.51a16.68,16.68,0,0,0,8.79-2.62A23.7,23.7,0,0,0,84.27,72a19.32,19.32,0,0,0,4.26-4.9,11.1,11.1,0,0,0,2.82,5.71,11.31,11.31,0,0,0,8.45,3.28,12.26,12.26,0,0,0,8.13-2.89,11.58,11.58,0,0,0,3.87-8.34,8.9,8.9,0,0,1-3.49.65,5.08,5.08,0,0,1-3.43-.93,4,4,0,0,1-1-3.11,13.07,13.07,0,0,1,.44-3.48Z"/><path class="cls-2" d="M113.38.22C111.67-1.49,107,7.35,107,7.35s-4.21-8.84-5.89-7.13a8.49,8.49,0,0,0-2.5,6.16,8.33,8.33,0,0,0,2.5,6.11,8.33,8.33,0,0,0,6.11,2.5,8.49,8.49,0,0,0,6.16-2.5,8.23,8.23,0,0,0,2.56-6.11A8.39,8.39,0,0,0,113.38.22Z"/><path class="cls-1" d="M144.23,72.9c-2.36,1.87-4.63,5-6.82,9.36a84.66,84.66,0,0,0-6.3,17.43,71.07,71.07,0,0,0-2.41,17,20.26,20.26,0,0,0,1.35,8.18,4.44,4.44,0,0,0,4.23,3q4.72,0,9.39-6.78a60.13,60.13,0,0,0,7.7-17.09,70,70,0,0,0,3-19.84,36.88,36.88,0,0,0-1-9.58l0,0a7.66,7.66,0,0,1-9.15-1.66Z"/><path class="cls-1" d="M161.82,69.46a21,21,0,0,1,1.69,2.43,12.77,12.77,0,0,0,10.31.85c0-.06-.11-.11-.15-.17a14.3,14.3,0,0,1-2.62-8.84,28.41,28.41,0,0,1,.54-5.17q.56-2.89,1.15-5.62c.4-1.82.67-3,.82-3.49q.87-3.81,1.63-7.52a31.18,31.18,0,0,0,.77-6q0-5.57-3.93-5.56a6.33,6.33,0,0,0-5,2.78,21.39,21.39,0,0,0-3.48,7.25l-5.47,25.82a15.34,15.34,0,0,1,2.2,1.61A15,15,0,0,1,161.82,69.46Z"/><path class="cls-1" d="M148.37,37.78a11.07,11.07,0,0,0,.33-2.72q0-4.8-3.28-4.8A6.63,6.63,0,0,0,140.14,33a20.7,20.7,0,0,0-3.55,7.36l-5.13,24.23a49.15,49.15,0,0,1,11.59-1.69Z"/><path d="M114.83,95.89a11,11,0,0,1-.48-3.8,22.78,22.78,0,0,1,3.8-13,25.12,25.12,0,0,1,3.23-3.87c-.24.07-.47.15-.71.21a16,16,0,0,1-8.41-.18c-.42.42-.84.84-1.23,1.29q-5.44,6.06-5.44,12.71c0,2.82.82,4.88,2.45,6.16s4.06,1.93,7.27,1.93A7.38,7.38,0,0,0,114.83,95.89Z"/><path d="M174.63,73.62a7.55,7.55,0,0,1-.81-.88,12.77,12.77,0,0,1-10.31-.85,21,21,0,0,0-1.69-2.43,15,15,0,0,0-1.56-1.63,15.34,15.34,0,0,0-2.2-1.61l-.66,3.09a7.67,7.67,0,0,1-4,5.25l0,0a36.88,36.88,0,0,1,1,9.58,70,70,0,0,1-3,19.84,60.13,60.13,0,0,1-7.7,17.09q-4.66,6.78-9.39,6.78a4.44,4.44,0,0,1-4.23-3,20.26,20.26,0,0,1-1.35-8.18,71.07,71.07,0,0,1,2.41-17,84.66,84.66,0,0,1,6.3-17.43c2.19-4.38,4.46-7.49,6.82-9.36a7.75,7.75,0,0,1-1.09-1.53,17.69,17.69,0,0,0-2.6-.18q-8.08,0-14,7.61a53.49,53.49,0,0,0-9,18.29,70.1,70.1,0,0,0-3.08,19.26q0,10.11,4.57,14.73t12.66,4.62A27.41,27.41,0,0,0,151.47,128,47.14,47.14,0,0,0,163.36,109a65.67,65.67,0,0,0,3.85-21.47,39.07,39.07,0,0,0-.74-7.85C170.35,78.79,173.13,75.73,174.63,73.62Z"/><path d="M142.22,67.34a7.27,7.27,0,0,1,.15-1.21l.68-3.19a49.15,49.15,0,0,0-11.59,1.69l-.52,2.45a16.53,16.53,0,0,1-2.06,3,31.59,31.59,0,0,1,13.2-2.78Z"/><path class="cls-2" d="M190.46,65.48a4.14,4.14,0,0,1-3.38-1.2,5.18,5.18,0,0,1-1-3.38,24.5,24.5,0,0,1,.71-5.07c.47-2.14,1-4.34,1.58-6.6.94-3.7,1.67-6.85,2.18-9.43a36.48,36.48,0,0,0,.76-7q0-6.23-3.27-9.27c-2.18-2-5.13-3.05-8.83-3.05q-9.16,0-15.16,9.26-1.63-9.37-11.23-9.37a17.25,17.25,0,0,0-13.3,6.21l1.2-5.67c-3.37,0-6.33.2-9.41.33a7.53,7.53,0,0,0-6.87,5.42,119.89,119.89,0,0,0-3.45,14c-1,5.39-2,10-3,15a58.48,58.48,0,0,1-6,15.75c-.79,1.32-1.52,2.35-2,3a16.78,16.78,0,0,0,2.26.85,16,16,0,0,0,8.41.18c.24-.06.47-.14.71-.21a16,16,0,0,0,7.5-5,16.53,16.53,0,0,0,2.06-3l.52-2.45,5.13-24.23A20.7,20.7,0,0,1,140.14,33a6.63,6.63,0,0,1,5.28-2.78q3.29,0,3.28,4.8a11.07,11.07,0,0,1-.33,2.72l-5.32,25.16-.68,3.19a7.27,7.27,0,0,0-.15,1.21,7.57,7.57,0,0,0,.92,4,7.75,7.75,0,0,0,1.09,1.53,7.67,7.67,0,0,0,13.17-3.59l.66-3.09,5.47-25.82A21.39,21.39,0,0,1,167,33.15a6.33,6.33,0,0,1,5-2.78q3.93,0,3.93,5.56a31.18,31.18,0,0,1-.77,6q-.76,3.7-1.63,7.52c-.15.51-.42,1.67-.82,3.49s-.78,3.69-1.15,5.62a28.41,28.41,0,0,0-.54,5.17,14.25,14.25,0,0,0,2.75,9h0a7.55,7.55,0,0,0,.81.88c1.75,1.62,4.22,2.44,7.43,2.44a12,12,0,0,0,8-2.84q3.31-2.84,4-8.39A7.08,7.08,0,0,1,190.46,65.48Z"/></g></g></svg>